# xmcd
#
# Track frame offsets:
#	150
#	15107
#	37645
#	54805
#	70821
#	87107
#	100750
#	118986
#	133284
#	151610
#	165887
#	185340
#	201596
#	221274
#
# Disc length: 3163 seconds
#
# Revision: 0
# Processed by: cddbd v1.5.1PL0 Copyright (c) Steve Scherf et al.
# Submitted via: EasyCDDAExtractor 8.0.1.1
#
DISCID=a40c590e
DTITLE=Charlie Landsborough - The Collection
DYEAR=2000
DGENRE=Country
TTITLE0=Down to Earth
TTITLE1=Isle of Innisfree
TTITLE2=The twelfth of never
TTITLE3=Irish Waltz
TTITLE4=You and Me
TTITLE5=Lovers Chain
TTITLE6=Funny Way to Say Goodbye
TTITLE7=Still Blue
TTITLE8=No Time at All
TTITLE9=Dance with Me
TTITLE10=Throw me Away
TTITLE11=God Knocking at your Door
TTITLE12=Saints
TTITLE13=Fireside Dreaming
EXTD=
EXTT0=
EXTT1=
EXTT2=
EXTT3=
EXTT4=
EXTT5=
EXTT6=
EXTT7=
EXTT8=
EXTT9=
EXTT10=
EXTT11=
EXTT12=
EXTT13=
PLAYORDER=
